<?xml version="1.0" encoding="utf-8"?>
<!-- Generator: Adobe Illustrator 27.0.0, SVG Export Plug-In . SVG Version: 6.00 Build 0)  -->
<svg version="1.1" id="Capa_1" xmlns="http://www.w3.org/2000/svg" xmlns:xlink="http://www.w3.org/1999/xlink" x="0px" y="0px"
	 viewBox="0 0 1363.2 690.5" style="enable-background:new 0 0 1363.2 690.5;" xml:space="preserve">
<style type="text/css">
	.st0{fill:#FFE501;}
</style>
<path id="Mail_Outline" class="st0" d="M572.2,475.5l-21.8,2.9c-2.7,0.4-4.7,2.9-4.3,5.6l1.7,12.9c0.4,2.7,2.9,4.7,5.6,4.3l21.8-2.9
	c2.7-0.4,4.7-2.9,4.3-5.6l-1.7-12.9C577.5,477.1,574.9,475.1,572.2,475.5z M572.5,477.5c0.4-0.1,0.7,0,1.1,0.1l-10.9,12l-13.4-8.6
	c0.4-0.3,0.8-0.5,1.3-0.5L572.5,477.5z M577.6,492.9c0.2,1.6-0.9,3.2-2.6,3.4l-21.8,2.9c-1.6,0.2-3.2-0.9-3.4-2.6l-1.7-12.9
	c-0.1-0.4,0-0.8,0.1-1.2l14.2,9.1c0.2,0.1,0.4,0.2,0.7,0.1s0.4-0.1,0.6-0.3l11.4-12.6c0.1-0.1,0.1-0.2,0.2-0.3
	c0.3,0.4,0.5,0.9,0.6,1.4L577.6,492.9z"/>
<path id="Mail_Outline_00000120545653677804388570000014210013387152373144_" class="st0" d="M263.1,477.5l-20.1,9
	c-2.5,1.1-3.6,4.1-2.5,6.6l5.3,11.9c1.1,2.5,4.1,3.6,6.6,2.5l20.1-9c2.5-1.1,3.6-4.1,2.5-6.6l-5.3-11.9
	C268.6,477.5,265.6,476.4,263.1,477.5z M263.9,479.3c0.3-0.2,0.7-0.2,1.1-0.2l-7,14.6l-15.3-4.4c0.3-0.4,0.7-0.7,1.1-0.9
	L263.9,479.3z M273.2,492.7c0.7,1.5,0,3.3-1.5,4l-20.1,9c-1.5,0.7-3.3,0-4-1.5l-5.3-11.9c-0.2-0.4-0.3-0.8-0.3-1.2l16.2,4.7
	c0.2,0.1,0.5,0,0.7,0s0.4-0.3,0.5-0.5l7.4-15.3c0-0.1,0.1-0.2,0.1-0.3c0.4,0.3,0.8,0.7,1,1.2L273.2,492.7z"/>
<path id="Mail_Outline_00000016766163309975242300000007507054062079544981_" class="st0" d="M598.8,547.4h-39.9
	c-5,0-9.1,4.1-9.1,9.1V580c0,5,4.1,9.1,9.1,9.1h39.9c5,0,9.1-4.1,9.1-9.1v-23.6C607.8,551.5,603.7,547.4,598.8,547.4z M598.8,551
	c0.7,0,1.3,0.1,2,0.4l-22.4,18.9l-22-18.6c0.8-0.4,1.6-0.7,2.6-0.7H598.8z M604.2,580c0,3-2.4,5.4-5.4,5.4h-39.9
	c-3,0-5.4-2.4-5.4-5.4v-23.6c0-0.7,0.2-1.5,0.4-2.1l23.3,19.7c0.3,0.3,0.8,0.4,1.2,0.4s0.8-0.1,1.2-0.4l23.6-19.9
	c0.1-0.1,0.2-0.3,0.3-0.4c0.5,0.8,0.8,1.7,0.8,2.7V580z"/>
<path id="Mail_Outline_00000057133218724634919420000006255995151167182503_" class="st0" d="M629.8,61.2l-53.4,2.2
	c-6.7,0.3-11.9,6-11.6,12.6l1.3,31.6c0.3,6.7,6,11.9,12.6,11.6l53.4-2.2c6.7-0.3,11.9-6,11.6-12.6l-1.3-31.6
	C642.1,66.2,636.4,61,629.8,61.2z M630,66.1c0.9,0,1.8,0.1,2.6,0.4l-28.9,26.6l-30.5-23.8c1-0.6,2.1-1,3.4-1L630,66.1z M638.8,104.7
	c0.2,4-3,7.4-7,7.6l-53.4,2.2c-4,0.2-7.4-3-7.6-7l-1.3-31.6c0-1,0.1-2,0.5-2.8l32.3,25.1c0.5,0.4,1,0.5,1.6,0.5
	c0.6,0,1.1-0.2,1.5-0.6l30.5-28c0.2-0.2,0.3-0.4,0.4-0.6c0.7,1.1,1.1,2.3,1.2,3.6L638.8,104.7z"/>
<path id="Mail_Outline_00000123441149136286290690000017469954622349536930_" class="st0" d="M927.9,397.3l-20.1-9
	c-2.5-1.1-5.5,0-6.6,2.5l-5.3,11.9c-1.1,2.5,0,5.5,2.5,6.6l20.1,9c2.5,1.1,5.5,0,6.6-2.5l5.3-11.9
	C931.6,401.4,930.4,398.5,927.9,397.3z M927.1,399.2c0.3,0.2,0.6,0.4,0.9,0.6l-15.5,4.4l-6.9-14.4c0.5,0,1,0,1.4,0.2L927.1,399.2z
	 M923.3,415c-0.7,1.5-2.5,2.2-4,1.5l-20.1-9c-1.5-0.7-2.2-2.5-1.5-4l5.3-11.9c0.2-0.4,0.4-0.7,0.7-1l7.3,15.2
	c0.1,0.2,0.3,0.4,0.5,0.5c0.2,0.1,0.5,0.1,0.7,0l16.4-4.7c0.1,0,0.2-0.1,0.3-0.1c0.1,0.5,0,1-0.2,1.6L923.3,415z"/>
<path id="Mail_Outline_00000034791360637302295350000014073069339970009533_" class="st0" d="M902,142.6l-21.7,3.9
	c-2.7,0.5-4.5,3.1-4,5.8l2.3,12.8c0.5,2.7,3.1,4.5,5.8,4l21.7-3.9c2.7-0.5,4.5-3.1,4-5.8l-2.3-12.8
	C907.3,143.9,904.7,142.1,902,142.6z M902.4,144.6c0.4-0.1,0.7-0.1,1.1,0L893.1,157l-13.8-8c0.4-0.3,0.8-0.5,1.3-0.6L902.4,144.6z
	 M908.1,159.8c0.3,1.6-0.8,3.2-2.4,3.5l-21.7,3.9c-1.6,0.3-3.2-0.8-3.5-2.4l-2.3-12.8c-0.1-0.4-0.1-0.8,0-1.2l14.6,8.5
	c0.2,0.1,0.5,0.2,0.7,0.1s0.4-0.2,0.6-0.3l10.9-13.1c0.1-0.1,0.1-0.2,0.1-0.3c0.3,0.4,0.6,0.9,0.7,1.4L908.1,159.8z"/>
<path id="Mail_Outline_00000095325540076439637320000015165817829149008275_" class="st0" d="M965.5,88.3l-38.6-9.9
	c-4.8-1.2-9.8,1.7-11,6.5l-5.9,22.8c-1.2,4.8,1.7,9.8,6.5,11l38.6,9.9c4.8,1.2,9.8-1.7,11-6.5l5.9-22.8
	C973.2,94.5,970.3,89.5,965.5,88.3z M964.6,91.8c0.7,0.2,1.3,0.5,1.8,0.9L940,105.4l-16.7-23.5c0.8-0.2,1.7-0.2,2.6,0L964.6,91.8z
	 M962.6,121.3c-0.7,2.9-3.7,4.7-6.6,3.9l-38.6-9.9c-2.9-0.7-4.7-3.7-3.9-6.6l5.9-22.8c0.2-0.7,0.5-1.4,0.9-1.9l17.7,24.9
	c0.3,0.4,0.6,0.6,1,0.7c0.4,0.1,0.8,0.1,1.2-0.1L968,95.9c0.2-0.1,0.3-0.2,0.4-0.3c0.3,0.9,0.3,1.9,0.1,2.8L962.6,121.3z"/>
<path id="Mail_Outline_00000158733779456601818420000003706638951339653766_" class="st0" d="M940.8,610.8l-21.9-1.9
	c-2.7-0.2-5.2,1.8-5.4,4.5l-1.1,13c-0.2,2.7,1.8,5.2,4.5,5.4l21.9,1.9c2.7,0.2,5.2-1.8,5.4-4.5l1.1-13
	C945.6,613.5,943.6,611,940.8,610.8z M940.7,612.8c0.4,0,0.7,0.1,1.1,0.3l-13.2,9.3l-11.2-11.3c0.4-0.2,0.9-0.3,1.4-0.2L940.7,612.8
	z M942.3,629c-0.1,1.6-1.6,2.9-3.2,2.7l-21.9-1.9c-1.6-0.1-2.9-1.6-2.7-3.2l1.1-13c0-0.4,0.2-0.8,0.3-1.1l11.9,12
	c0.2,0.2,0.4,0.3,0.6,0.3s0.5,0,0.7-0.2l13.9-9.8c0.1-0.1,0.1-0.1,0.2-0.2c0.2,0.5,0.3,1,0.3,1.5L942.3,629z"/>
<path id="Mail_Outline_00000000224858267158012710000017086859380632485298_" class="st0" d="M1011.1,468.2l-38.7-9.7
	c-4.8-1.2-9.8,1.8-11,6.6l-5.7,22.9c-1.2,4.8,1.8,9.8,6.6,11l38.7,9.7c4.8,1.2,9.8-1.8,11-6.6l5.7-22.9
	C1018.9,474.3,1015.9,469.4,1011.1,468.2z M1010.2,471.7c0.7,0.2,1.3,0.5,1.8,0.8l-26.3,12.9L968.9,462c0.8-0.2,1.7-0.3,2.6,0
	L1010.2,471.7z M1008.4,501.1c-0.7,2.9-3.7,4.7-6.6,4l-38.7-9.7c-2.9-0.7-4.7-3.7-4-6.6l5.7-22.9c0.2-0.7,0.5-1.4,0.9-1.9l17.8,24.8
	c0.3,0.4,0.6,0.6,1,0.7c0.4,0.1,0.8,0.1,1.2-0.1l27.7-13.6c0.2-0.1,0.3-0.2,0.4-0.3c0.3,0.9,0.3,1.9,0.1,2.8L1008.4,501.1z"/>
<path id="Mail_Outline_00000114783147986848488800000010132182457731218877_" class="st0" d="M899.1,525.4l-52.7,9.2
	c-6.6,1.2-11,7.5-9.9,14.1l5.5,31.1c1.2,6.6,7.5,11,14.1,9.9l52.7-9.2c6.6-1.2,11-7.5,9.9-14.1l-5.5-31.1
	C912,528.7,905.7,524.2,899.1,525.4z M899.9,530.2c0.9-0.2,1.8-0.1,2.7,0l-25.2,30.2L844,540.9c0.9-0.7,2-1.3,3.2-1.5L899.9,530.2z
	 M913.8,567.2c0.7,4-2,7.7-5.9,8.4l-52.7,9.2c-4,0.7-7.7-2-8.4-5.9l-5.5-31.1c-0.2-1-0.1-2,0.1-2.9l35.4,20.7
	c0.5,0.3,1.1,0.4,1.6,0.3c0.6-0.1,1.1-0.4,1.4-0.8l26.5-31.8c0.2-0.2,0.3-0.4,0.3-0.6c0.8,1,1.4,2.1,1.7,3.4L913.8,567.2z"/>
<path id="Mail_Outline_00000166644742064693271370000012678828949452539306_" class="st0" d="M1190.7,621.1l-21.5-4.5
	c-2.7-0.6-5.4,1.2-5.9,3.9l-2.6,12.7c-0.6,2.7,1.2,5.4,3.9,5.9l21.5,4.5c2.7,0.6,5.4-1.2,5.9-3.9l2.6-12.7
	C1195.1,624.3,1193.4,621.6,1190.7,621.1z M1190.3,623c0.4,0.1,0.7,0.2,1,0.4l-14.2,7.7l-9.8-12.5c0.5-0.1,1-0.2,1.5-0.1L1190.3,623
	z M1190,639.3c-0.3,1.6-1.9,2.7-3.5,2.3l-21.5-4.5c-1.6-0.3-2.7-1.9-2.3-3.5l2.6-12.7c0.1-0.4,0.2-0.8,0.5-1.1l10.4,13.3
	c0.2,0.2,0.4,0.3,0.6,0.4c0.2,0,0.5,0,0.7-0.1l15-8.1c0.1-0.1,0.2-0.1,0.2-0.2c0.2,0.5,0.2,1,0.1,1.6L1190,639.3z"/>
<path id="Mail_Outline_00000108299648755640767500000014096561568982517150_" class="st0" d="M1259.3,476.3l-38.9-8.6
	c-4.9-1.1-9.7,2-10.8,6.9l-5.1,23c-1.1,4.9,2,9.7,6.9,10.8l38.9,8.6c4.9,1.1,9.7-2,10.8-6.9l5.1-23
	C1267.3,482.2,1264.2,477.4,1259.3,476.3z M1258.5,479.8c0.7,0.1,1.3,0.4,1.8,0.8l-25.9,13.7l-17.5-22.9c0.8-0.2,1.7-0.3,2.6-0.1
	L1258.5,479.8z M1257.6,509.3c-0.6,2.9-3.6,4.8-6.5,4.1l-38.9-8.6c-2.9-0.6-4.8-3.6-4.1-6.5l5.1-23c0.2-0.7,0.5-1.4,0.9-2l18.5,24.3
	c0.3,0.4,0.6,0.6,1.1,0.7s0.8,0,1.2-0.2l27.3-14.4c0.2-0.1,0.3-0.2,0.4-0.3c0.3,0.9,0.4,1.9,0.2,2.8L1257.6,509.3z"/>
<path id="Mail_Outline_00000128454243875022853040000017096306797633224633_" class="st0" d="M509.2,484.6L430.1,470
	c-9.9-1.8-19.5,4.8-21.3,14.7l-8.6,46.8c-1.8,9.9,4.8,19.5,14.7,21.3l79.1,14.6c9.9,1.8,19.5-4.8,21.3-14.7l8.6-46.8
	C525.7,496,519.1,486.4,509.2,484.6z M507.9,491.7c1.4,0.3,2.6,0.8,3.7,1.5l-51.3,29.4l-36.9-45c1.7-0.5,3.5-0.7,5.3-0.4
	L507.9,491.7z M508.1,551.3c-1.1,5.9-6.8,9.9-12.8,8.8l-79.1-14.6c-5.9-1.1-9.9-6.8-8.8-12.8L416,486c0.3-1.5,0.8-2.8,1.6-4l39,47.7
	c0.6,0.7,1.3,1.1,2.2,1.3s1.7,0,2.5-0.4l54-30.9c0.3-0.2,0.6-0.5,0.8-0.7c0.7,1.8,0.9,3.7,0.5,5.7L508.1,551.3z"/>
<path id="Mail_Outline_00000018220485361065342920000017746646532128025021_" class="st0" d="M501.6,319.9l-21.2,5.8
	c-2.7,0.7-4.2,3.5-3.5,6.1l3.4,12.5c0.7,2.7,3.5,4.2,6.1,3.5l21.2-5.8c2.7-0.7,4.2-3.5,3.5-6.1l-3.4-12.5
	C507,320.8,504.3,319.2,501.6,319.9z M502.1,321.8c0.4-0.1,0.7-0.1,1.1-0.1l-9.1,13.3l-14.4-6.7c0.3-0.3,0.8-0.6,1.3-0.7
	L502.1,321.8z M509.3,336.5c0.4,1.6-0.5,3.2-2.1,3.7L486,346c-1.6,0.4-3.2-0.5-3.7-2.1l-3.4-12.5c-0.1-0.4-0.1-0.8-0.1-1.2l15.3,7.1
	c0.2,0.1,0.5,0.1,0.7,0.1c0.2-0.1,0.4-0.2,0.6-0.4l9.6-14.1c0.1-0.1,0.1-0.2,0.1-0.3c0.4,0.4,0.7,0.8,0.8,1.3L509.3,336.5z"/>
<path id="Mail_Outline_00000176004687444185747550000004531217868884258732_" class="st0" d="M740.3,273.1l-39.6-4.9
	c-4.9-0.6-9.5,2.9-10.1,7.9l-2.9,23.4c-0.6,4.9,2.9,9.5,7.9,10.1l39.6,4.9c4.9,0.6,9.5-2.9,10.1-7.9l2.9-23.4
	C748.8,278.3,745.2,273.8,740.3,273.1z M739.8,276.7c0.7,0.1,1.3,0.3,1.9,0.6l-24.5,16l-19.6-21.2c0.8-0.3,1.7-0.5,2.6-0.3
	L739.8,276.7z M741.7,306.2c-0.4,3-3.1,5.1-6.1,4.7L696,306c-3-0.4-5.1-3.1-4.7-6.1l2.9-23.4c0.1-0.7,0.3-1.4,0.7-2l20.7,22.4
	c0.3,0.3,0.7,0.5,1.1,0.6s0.8,0,1.2-0.3l25.8-16.9c0.2-0.1,0.3-0.2,0.4-0.4c0.4,0.9,0.6,1.8,0.4,2.8L741.7,306.2z"/>
<path id="Mail_Outline_00000060029294127843431210000000017398674103122572_" class="st0" d="M503.1,238l-52.7,9.2
	c-6.6,1.2-11,7.5-9.9,14.1l5.5,31.1c1.2,6.6,7.5,11,14.1,9.9l52.7-9.2c6.6-1.2,11-7.5,9.9-14.1l-5.5-31.1
	C516.1,241.3,509.7,236.9,503.1,238z M504,242.8c0.9-0.2,1.8-0.1,2.7,0L481.5,273l-33.4-19.5c0.9-0.7,2-1.3,3.2-1.5L504,242.8z
	 M517.9,279.9c0.7,4-2,7.7-5.9,8.4l-52.7,9.2c-4,0.7-7.7-2-8.4-5.9l-5.5-31.1c-0.2-1-0.1-2,0.1-2.9l35.4,20.7
	c0.5,0.3,1.1,0.4,1.6,0.3c0.6-0.1,1.1-0.4,1.4-0.8l26.5-31.8c0.2-0.2,0.3-0.4,0.3-0.6c0.8,1,1.4,2.1,1.7,3.4L517.9,279.9z"/>
<path id="Mail_Outline_00000152222534788217111040000014291200488369990570_" class="st0" d="M306.7,218.5l-21.5,4.9
	c-2.7,0.6-4.4,3.3-3.8,6l2.9,12.7c0.6,2.7,3.3,4.4,6,3.8l21.5-4.9c2.7-0.6,4.4-3.3,3.8-6l-2.9-12.7
	C312,219.6,309.3,217.9,306.7,218.5z M307.1,220.5c0.4-0.1,0.7-0.1,1.1,0l-9.7,12.9l-14.1-7.3c0.4-0.3,0.8-0.6,1.3-0.7L307.1,220.5z
	 M313.6,235.4c0.4,1.6-0.6,3.2-2.3,3.6l-21.5,4.9c-1.6,0.4-3.2-0.6-3.6-2.3l-2.9-12.7c-0.1-0.4-0.1-0.8,0-1.2l15,7.8
	c0.2,0.1,0.5,0.1,0.7,0.1c0.2-0.1,0.4-0.2,0.6-0.4l10.2-13.6c0.1-0.1,0.1-0.2,0.1-0.3c0.4,0.4,0.6,0.8,0.8,1.4L313.6,235.4z"/>
<path id="Mail_Outline_00000170995097261264715590000013382227855565403783_" class="st0" d="M249.8,105.8l-62.9-6.9
	c-7.9-0.9-15,4.9-15.9,12.7l-4.1,37.1c-0.9,7.9,4.9,15,12.7,15.9l62.9,6.9c7.9,0.9,15-4.9,15.9-12.7l4.1-37.1
	C263.4,113.8,257.6,106.7,249.8,105.8z M249.2,111.6c1.1,0.1,2.1,0.5,3,0.9l-38.5,26l-31.5-33.2c1.3-0.5,2.7-0.8,4.1-0.6
	L249.2,111.6z M252.7,158.2c-0.5,4.7-4.8,8.1-9.5,7.6l-62.9-6.9c-4.7-0.5-8.1-4.8-7.6-9.5l4.1-37.1c0.1-1.2,0.5-2.3,1-3.2l33.3,35.1
	c0.5,0.5,1.1,0.8,1.8,0.9c0.7,0.1,1.3-0.1,1.9-0.5l40.6-27.3c0.3-0.2,0.4-0.4,0.6-0.6c0.6,1.4,0.9,2.9,0.7,4.5L252.7,158.2z"/>
<path id="Mail_Outline_00000000186500787449917900000000502550983253170605_" class="st0" d="M1251.3,289.1l-20.3-8.4
	c-2.5-1-5.5,0.2-6.5,2.7l-4.9,12c-1,2.5,0.2,5.5,2.7,6.5l20.3,8.4c2.5,1,5.5-0.2,6.5-2.7l4.9-12
	C1255.1,293.1,1253.9,290.1,1251.3,289.1z M1250.5,291c0.4,0.1,0.7,0.4,0.9,0.6l-15.4,5l-7.3-14.1c0.5,0,1,0,1.4,0.2L1250.5,291z
	 M1247.2,306.9c-0.6,1.5-2.4,2.3-3.9,1.6l-20.3-8.4c-1.5-0.6-2.3-2.4-1.6-3.9l4.9-12c0.2-0.4,0.4-0.7,0.7-1l7.8,15
	c0.1,0.2,0.3,0.4,0.5,0.5s0.5,0.1,0.7,0l16.2-5.2c0.1,0,0.2-0.1,0.3-0.1c0.1,0.5,0,1-0.2,1.6L1247.2,306.9z"/>
<path id="Mail_Outline_00000016037957080201606080000015061988997662698159_" class="st0" d="M1306.3,131.4l-37.5,13.5
	c-4.7,1.7-7.2,6.9-5.5,11.6l8,22.2c1.7,4.7,6.9,7.2,11.6,5.5l37.5-13.5c4.7-1.7,7.2-6.9,5.5-11.6l-8-22.2
	C1316.2,132.2,1311,129.8,1306.3,131.4z M1307.5,134.9c0.7-0.2,1.3-0.3,2-0.3l-14.7,25.4l-27-10.1c0.6-0.6,1.3-1.2,2.2-1.5
	L1307.5,134.9z M1322.4,160.3c1,2.8-0.5,5.9-3.3,7l-37.5,13.5c-2.8,1-5.9-0.5-7-3.3l-8-22.2c-0.3-0.7-0.3-1.4-0.3-2.1l28.6,10.7
	c0.4,0.2,0.9,0.1,1.2,0s0.7-0.4,1-0.8l15.4-26.7c0.1-0.2,0.1-0.3,0.2-0.5c0.7,0.6,1.3,1.4,1.7,2.3L1322.4,160.3z"/>
<path id="Mail_Outline_00000080177974263902333830000010284597154699202484_" class="st0" d="M1290.5,588.5l-51.6,14.1
	c-6.5,1.8-10.3,8.5-8.5,14.9l8.3,30.5c1.8,6.5,8.5,10.3,14.9,8.5l51.6-14.1c6.5-1.8,10.3-8.5,8.5-14.9l-8.3-30.5
	C1303.7,590.5,1297,586.7,1290.5,588.5z M1291.8,593.1c0.9-0.2,1.8-0.3,2.7-0.2l-22.3,32.4l-35.1-16.3c0.8-0.8,1.9-1.4,3.1-1.8
	L1291.8,593.1z M1309.1,628.8c1.1,3.9-1.2,7.9-5.1,9l-51.6,14.1c-3.9,1.1-7.9-1.2-9-5.1l-8.3-30.5c-0.3-1-0.3-1.9-0.2-2.9l37.1,17.3
	c0.5,0.3,1.1,0.3,1.7,0.1c0.5-0.1,1-0.5,1.4-1l23.5-34.1c0.1-0.2,0.2-0.4,0.3-0.7c0.9,0.9,1.6,2,2,3.3L1309.1,628.8z"/>
<path id="Mail_Outline_00000068657722457025452130000012895249979420337794_" class="st0" d="M1014.5,212l-97.2,7.9
	c-12.2,1-21.3,11.7-20.3,23.9l4.7,57.5c1,12.2,11.7,21.3,23.9,20.3l97.2-7.9c12.2-1,21.3-11.7,20.3-23.9l-4.7-57.5
	C1037.4,220.1,1026.6,211,1014.5,212z M1015.2,220.8c1.7-0.1,3.3,0.1,4.8,0.5L969.2,272l-57.4-41.1c1.8-1.2,3.8-1.9,6.1-2.1
	L1015.2,220.8z M1034.2,290.5c0.6,7.3-4.9,13.7-12.2,14.3l-97.2,7.9c-7.3,0.6-13.7-4.9-14.3-12.2l-4.7-57.5
	c-0.1-1.8,0.1-3.6,0.6-5.2l60.8,43.5c0.9,0.6,1.9,0.9,2.9,0.8c1-0.1,2-0.5,2.8-1.3l53.5-53.3c0.3-0.3,0.5-0.7,0.7-1.1
	c1.3,1.9,2.2,4.1,2.4,6.5L1034.2,290.5z"/>
<path id="Mail_Outline_00000014612172823487480020000012076113003726795429_" class="st0" d="M243,562.6l-52.8,8.5
	c-6.6,1.1-11.1,7.3-10.1,13.9l5,31.2c1.1,6.6,7.3,11.1,13.9,10.1l52.8-8.5c6.6-1.1,11.1-7.3,10.1-13.9l-5-31.2
	C255.9,566.1,249.7,561.6,243,562.6z M243.8,567.4c0.9-0.1,1.8-0.1,2.7,0.1l-25.6,29.8l-33.1-20c0.9-0.7,2-1.2,3.2-1.4L243.8,567.4z
	 M257.2,604.7c0.6,4-2.1,7.7-6,8.4l-52.8,8.5c-4,0.6-7.7-2.1-8.4-6l-5-31.2c-0.2-1-0.1-2,0.1-2.9l35.1,21.1c0.5,0.3,1.1,0.4,1.6,0.3
	c0.6-0.1,1.1-0.4,1.5-0.8l26.9-31.4c0.2-0.2,0.3-0.4,0.4-0.6c0.8,1,1.4,2.1,1.6,3.5L257.2,604.7z"/>
<path id="Mail_Outline_00000094608195995697979280000011747914444837991307_" class="st0" d="M158.8,223.1L57.2,238.8
	c-12.7,2-21.5,14-19.5,26.6l9.3,60c2,12.7,14,21.5,26.6,19.5l101.6-15.7c12.7-2,21.5-14,19.5-26.6l-9.3-60
	C183.5,229.9,171.5,221.2,158.8,223.1z M160.2,232.4c1.8-0.3,3.5-0.2,5.1,0.2l-49.5,57l-63.4-38.8c1.8-1.3,3.9-2.3,6.2-2.7
	L160.2,232.4z M185.5,304.1c1.2,7.6-4.1,14.8-11.7,16L72.2,335.8c-7.6,1.2-14.8-4.1-16-11.7l-9.3-60c-0.3-1.9-0.2-3.8,0.3-5.5
	l67.1,41.1c1,0.6,2.1,0.8,3.2,0.6s2.1-0.7,2.8-1.6l52.2-60.1c0.3-0.4,0.5-0.8,0.7-1.2c1.5,1.9,2.6,4.1,3,6.7L185.5,304.1z"/>
<g id="Phone_Outlined">
	<path class="st0" d="M162.8,409.2c-5.8-13.2-16.1-23.6-29.2-29c-1.1-0.5-2.3,0.1-2.8,1.2c-0.4,1.1,0.1,2.4,1.2,2.9
		c12,5,21.6,14.5,26.9,26.7c0.4,0.8,1.1,1.3,1.9,1.3c0.3,0,0.6-0.1,0.9-0.2C162.8,411.6,163.2,410.3,162.8,409.2z"/>
	<path class="st0" d="M130.9,395.9c7.3,3,13.1,8.8,16.3,16.2c0.3,0.8,1.1,1.2,1.9,1.2c0.3,0,0.6-0.1,0.8-0.2c1-0.5,1.5-1.7,1-2.8
		c-3.7-8.4-10.2-14.9-18.5-18.4c-1.1-0.4-2.2,0.1-2.7,1.2C129.3,394.2,129.9,395.5,130.9,395.9z"/>
	<path class="st0" d="M151.6,421.4c-1.2-1.2-2.5-1.7-3.8-1.7c-1.3,0-2.6,0.6-3.8,1.7c-1.8,1.8-3.5,3.5-5.3,5.3
		c-0.3,0.3-0.6,0.5-0.8,0.5c-0.2,0-0.4-0.1-0.6-0.2c-1.1-0.6-2.4-1.1-3.5-1.8c-5.1-3.2-9.4-7.4-13.2-12c-1.9-2.3-3.6-4.8-4.7-7.6
		c-0.2-0.6-0.2-0.9,0.3-1.4c1.8-1.7,3.5-3.5,5.2-5.2c2.4-2.4,2.4-5.3,0-7.7c-1.4-1.4-2.8-2.8-4.1-4.2c-1.4-1.4-2.8-2.9-4.3-4.3
		c-1.2-1.1-2.5-1.7-3.8-1.7c-1.3,0-2.6,0.6-3.8,1.7c-1.8,1.8-3.5,3.5-5.3,5.3c-1.7,1.6-2.5,3.5-2.7,5.8c-0.3,3.7,0.6,7.2,1.9,10.6
		c2.6,7,6.6,13.3,11.4,19c6.5,7.8,14.3,13.9,23.4,18.3c4.1,2,8.3,3.5,13,3.8c0.3,0,0.6,0,0.8,0c2.8,0,5.3-0.9,7.3-3.1
		c1.5-1.7,3.2-3.2,4.8-4.9c2.4-2.4,2.4-5.3,0-7.7C157.3,427.1,154.5,424.3,151.6,421.4z M157,434.6c-0.5,0.5-1.1,1.1-1.6,1.6
		c-1.1,1.1-2.3,2.2-3.4,3.4c-1.1,1.2-2.3,1.7-4.1,1.7c-0.2,0-0.4,0-0.6,0c-3.4-0.2-6.9-1.2-11.3-3.3c-8.4-4.1-15.8-9.9-22-17.2
		c-4.9-5.8-8.4-11.6-10.7-17.8c-1.3-3.5-1.8-6.2-1.6-8.7c0.1-1.3,0.5-2.2,1.4-3c1.1-1.1,2.2-2.2,3.3-3.2c0.7-0.7,1.4-1.4,2.1-2.1
		c0.4-0.4,0.7-0.5,0.8-0.5c0.1,0,0.4,0.1,0.8,0.5c0.9,0.9,1.9,1.9,2.8,2.8l1.4,1.4c0.7,0.7,1.4,1.4,2.1,2.1c0.7,0.7,1.4,1.4,2,2
		c0.8,0.8,0.7,0.9,0,1.7l-0.7,0.7c-1.5,1.5-2.9,3-4.5,4.5c-1.7,1.7-2.1,3.9-1.2,6.1c1.2,2.9,2.9,5.6,5.4,8.6
		c4.5,5.5,9.1,9.7,14.3,13c0.8,0.5,1.7,0.9,2.5,1.3c0.4,0.2,0.8,0.4,1.2,0.6c0.9,0.5,1.8,0.7,2.7,0.7c1,0,2.5-0.3,3.9-1.8
		c1.7-1.7,3.4-3.5,5.2-5.2c0.4-0.4,0.7-0.5,0.7-0.5c0.1,0,0.4,0.1,0.8,0.5c2.8,2.8,5.7,5.6,8.5,8.5
		C157.7,433.6,157.8,433.8,157,434.6z"/>
</g>
<g id="Phone_Outlined_00000160912269376281335770000003836310224359033728_">
	<path class="st0" d="M107.3,630.6c-3.5-8-9.8-14.3-17.6-17.6c-0.7-0.3-1.4,0.1-1.7,0.7c-0.3,0.7,0.1,1.5,0.7,1.7
		c7.3,3,13.1,8.8,16.3,16.2c0.2,0.5,0.7,0.8,1.2,0.8c0.2,0,0.4,0,0.5-0.1C107.3,632.1,107.6,631.3,107.3,630.6z"/>
	<path class="st0" d="M88,622.6c4.4,1.8,7.9,5.3,9.9,9.8c0.2,0.5,0.7,0.8,1.1,0.8c0.2,0,0.3,0,0.5-0.1c0.6-0.3,0.9-1,0.6-1.7
		c-2.2-5.1-6.2-9-11.2-11.1c-0.6-0.3-1.4,0-1.6,0.7C87.1,621.6,87.4,622.3,88,622.6z"/>
	<path class="st0" d="M100.5,638c-0.7-0.7-1.5-1-2.3-1c-0.8,0-1.6,0.3-2.3,1c-1.1,1.1-2.1,2.1-3.2,3.2c-0.2,0.2-0.3,0.3-0.5,0.3
		c-0.1,0-0.2,0-0.4-0.1c-0.7-0.4-1.4-0.7-2.1-1.1c-3.1-2-5.7-4.5-8-7.3c-1.1-1.4-2.2-2.9-2.9-4.6c-0.1-0.3-0.1-0.6,0.2-0.8
		c1.1-1,2.1-2.1,3.2-3.2c1.5-1.5,1.5-3.2,0-4.7c-0.8-0.8-1.7-1.7-2.5-2.5c-0.9-0.9-1.7-1.7-2.6-2.6c-0.7-0.7-1.5-1-2.3-1
		c-0.8,0-1.6,0.3-2.3,1c-1.1,1.1-2.1,2.1-3.2,3.2c-1,1-1.5,2.1-1.6,3.5c-0.2,2.2,0.4,4.4,1.2,6.4c1.6,4.3,4,8,6.9,11.5
		c3.9,4.7,8.7,8.4,14.2,11.1c2.5,1.2,5.1,2.1,7.8,2.3c0.2,0,0.3,0,0.5,0c1.7,0,3.2-0.5,4.4-1.9c0.9-1,2-2,2.9-2.9
		c1.4-1.5,1.4-3.2,0-4.7C104,641.5,102.3,639.7,100.5,638z M103.8,646c-0.3,0.3-0.6,0.6-1,1c-0.7,0.7-1.4,1.3-2,2.1
		c-0.6,0.7-1.4,1-2.5,1c-0.1,0-0.2,0-0.4,0c-2.1-0.1-4.2-0.7-6.9-2c-5.1-2.5-9.6-6-13.3-10.4c-3-3.5-5.1-7.1-6.5-10.8
		c-0.8-2.1-1.1-3.8-1-5.3c0.1-0.8,0.3-1.3,0.8-1.8c0.7-0.6,1.3-1.3,2-2c0.4-0.4,0.8-0.8,1.3-1.3c0.2-0.2,0.4-0.3,0.5-0.3
		c0.1,0,0.2,0.1,0.5,0.3c0.6,0.6,1.1,1.1,1.7,1.7l0.9,0.9c0.4,0.4,0.9,0.9,1.3,1.3c0.4,0.4,0.8,0.8,1.2,1.2c0.5,0.5,0.5,0.6,0,1
		L80,623c-0.9,0.9-1.8,1.8-2.7,2.7c-1,1-1.3,2.4-0.7,3.7c0.7,1.7,1.8,3.4,3.3,5.2c2.7,3.3,5.5,5.9,8.6,7.8c0.5,0.3,1,0.6,1.5,0.8
		c0.2,0.1,0.5,0.2,0.7,0.4c0.5,0.3,1.1,0.5,1.6,0.5c0.6,0,1.5-0.2,2.4-1.1c1-1.1,2.1-2.1,3.2-3.2c0.2-0.2,0.4-0.3,0.4-0.3
		c0.1,0,0.2,0.1,0.5,0.3c1.7,1.7,3.4,3.4,5.1,5.1C104.2,645.4,104.3,645.5,103.8,646z"/>
</g>
<g id="Phone_Outlined_00000120529180744943422340000015747555541025467786_">
	<path class="st0" d="M1222.5,79.3c-2.3-13.5-9.5-25.4-20.2-33.4c-0.9-0.7-2.2-0.5-2.8,0.5c-0.7,0.9-0.5,2.2,0.4,2.9
		c9.9,7.4,16.5,18.3,18.6,30.8c0.1,0.8,0.7,1.4,1.5,1.6c0.3,0.1,0.6,0.1,0.8,0C1222,81.5,1222.7,80.4,1222.5,79.3z"/>
	<path class="st0" d="M1196.2,59.7c6,4.5,10,11.1,11.3,18.6c0.1,0.8,0.7,1.4,1.4,1.6c0.3,0.1,0.5,0.1,0.8,0c1.1-0.2,1.8-1.2,1.6-2.3
		c-1.4-8.6-6-16.1-12.8-21.2c-0.9-0.6-2.1-0.4-2.7,0.5C1195.1,57.8,1195.3,59.1,1196.2,59.7z"/>
	<path class="st0" d="M1209.4,88c-0.8-1.3-1.9-2.2-3.1-2.5c-1.2-0.3-2.5-0.1-3.9,0.7c-2,1.2-4.1,2.4-6.1,3.7
		c-0.3,0.2-0.6,0.3-0.9,0.2c-0.2,0-0.3-0.1-0.5-0.3c-0.9-0.8-1.9-1.6-2.8-2.5c-4-4.1-7-8.9-9.4-14.1c-1.2-2.6-2.2-5.2-2.6-8.1
		c-0.1-0.6,0-0.9,0.6-1.2c2-1.2,4-2.4,6-3.6c2.8-1.7,3.4-4.3,1.8-7.1c-1-1.6-1.9-3.2-2.9-4.8c-1-1.6-2-3.3-3-4.9
		c-0.8-1.3-1.9-2.1-3.1-2.4c-1.2-0.3-2.5-0.1-3.9,0.7c-2,1.2-4,2.5-6.1,3.6c-1.9,1.1-3.1,2.7-3.8,4.7c-1.1,3.3-1.1,6.8-0.7,10.2
		c0.8,7.1,3,13.8,6.2,20.1c4.2,8.6,10,16.1,17.4,22.2c3.3,2.8,6.9,5.2,11.1,6.4c0.3,0.1,0.5,0.1,0.8,0.2c2.6,0.6,5.1,0.4,7.5-1.2
		c1.8-1.2,3.7-2.2,5.6-3.4c2.7-1.7,3.4-4.3,1.8-7.1C1213.4,94.5,1211.4,91.3,1209.4,88z M1211.4,101.4c-0.6,0.4-1.2,0.7-1.8,1.1
		c-1.3,0.7-2.6,1.5-3.9,2.4c-1.2,0.8-2.5,1-4.2,0.6c-0.2,0-0.4-0.1-0.5-0.2c-3.1-1-6.1-2.7-9.7-5.7c-6.8-5.7-12.3-12.7-16.3-20.9
		c-3.2-6.5-5.1-12.7-5.8-18.8c-0.4-3.6-0.3-6.2,0.5-8.4c0.4-1.2,1-1.9,2-2.5c1.3-0.7,2.5-1.5,3.8-2.2c0.8-0.5,1.6-1,2.4-1.4
		c0.4-0.3,0.7-0.3,0.8-0.3c0.1,0,0.3,0.2,0.6,0.6c0.7,1.1,1.3,2.2,1.9,3.2l1,1.6c0.5,0.8,1,1.6,1.5,2.4c0.5,0.8,0.9,1.6,1.4,2.4
		c0.5,0.9,0.5,1-0.4,1.5l-0.8,0.5c-1.7,1-3.4,2.1-5.2,3.1c-1.9,1.2-2.8,3.1-2.5,5.3c0.5,2.9,1.4,5.9,3,9.2
		c2.9,6.1,6.2,11.1,10.2,15.2c0.7,0.7,1.3,1.3,2,1.8c0.3,0.3,0.7,0.6,0.9,0.8c0.7,0.7,1.5,1.1,2.3,1.3c0.9,0.2,2.4,0.3,4-0.7
		c2-1.2,3.9-2.4,6-3.6c0.4-0.3,0.7-0.3,0.8-0.3c0.1,0,0.3,0.2,0.6,0.6c2,3.2,3.9,6.5,5.9,9.7
		C1212.3,100.6,1212.3,100.8,1211.4,101.4z"/>
</g>
<g id="Phone_Outlined_00000073682876637575836230000009328781941218668731_">
	<path class="st0" d="M114.9,81c-0.3-10.8-4.6-20.8-12.1-28.3c-0.6-0.6-1.6-0.6-2.3,0.1c-0.6,0.7-0.6,1.7,0,2.3
		c6.9,6.9,10.9,16.1,11.1,26.1c0,0.7,0.4,1.2,1,1.4c0.2,0.1,0.4,0.1,0.7,0.1C114.2,82.6,114.9,81.9,114.9,81z"/>
	<path class="st0" d="M96.5,62.8c4.2,4.2,6.6,9.8,6.8,15.8c0,0.6,0.4,1.2,0.9,1.4c0.2,0.1,0.4,0.1,0.6,0.1c0.9,0,1.5-0.8,1.5-1.6
		c-0.2-6.8-2.9-13.2-7.7-17.9c-0.6-0.6-1.6-0.6-2.2,0.1C95.9,61.2,95.9,62.2,96.5,62.8z"/>
	<path class="st0" d="M103.7,86.3c-0.5-1.1-1.2-1.9-2.1-2.3c-0.9-0.4-2-0.3-3.1,0.1c-1.7,0.7-3.4,1.4-5.1,2.2
		c-0.3,0.1-0.5,0.2-0.7,0.1c-0.1-0.1-0.2-0.2-0.4-0.3c-0.6-0.8-1.3-1.4-1.9-2.2c-2.6-3.7-4.5-7.7-5.8-12c-0.7-2.1-1.1-4.3-1.2-6.6
		c0-0.5,0.1-0.7,0.6-0.9c1.7-0.7,3.4-1.4,5.1-2.1c2.4-1,3.2-3,2.2-5.4c-0.6-1.4-1.1-2.7-1.7-4c-0.6-1.4-1.2-2.8-1.8-4.2
		c-0.5-1.1-1.2-1.9-2.1-2.2c-0.9-0.4-2-0.3-3.1,0.1c-1.7,0.7-3.4,1.5-5.2,2.2c-1.6,0.6-2.7,1.7-3.5,3.3c-1.2,2.5-1.6,5.2-1.7,7.9
		c-0.2,5.6,0.8,11.1,2.6,16.4c2.3,7.2,6,13.6,11.1,19.3c2.3,2.5,4.8,4.8,7.9,6.3c0.2,0.1,0.4,0.2,0.6,0.3c2,0.8,3.9,0.9,6-0.1
		c1.5-0.7,3.1-1.3,4.7-2c2.3-1,3.2-3,2.2-5.3C106.1,91.8,104.9,89.1,103.7,86.3z M103.8,97c-0.5,0.2-1,0.4-1.6,0.6
		c-1.1,0.4-2.2,0.9-3.3,1.4c-1.1,0.5-2.1,0.5-3.3,0c-0.1-0.1-0.3-0.1-0.4-0.2c-2.3-1.1-4.5-2.8-6.9-5.5c-4.7-5.2-8.2-11.3-10.4-18.1
		c-1.8-5.4-2.6-10.4-2.4-15.3c0.1-2.8,0.5-4.8,1.3-6.5c0.4-0.9,1-1.4,1.8-1.7c1.1-0.4,2.1-0.9,3.2-1.3c0.7-0.3,1.3-0.6,2-0.9
		c0.4-0.2,0.6-0.1,0.7-0.1c0.1,0,0.2,0.2,0.4,0.5c0.4,0.9,0.8,1.8,1.2,2.7l0.6,1.4c0.3,0.7,0.6,1.4,0.9,2.1c0.3,0.7,0.6,1.3,0.8,2
		c0.3,0.8,0.3,0.9-0.5,1.2l-0.7,0.3c-1.4,0.6-2.9,1.2-4.4,1.8c-1.6,0.7-2.6,2.1-2.5,3.9c0,2.3,0.4,4.7,1.3,7.5
		c1.6,5.1,3.6,9.3,6.3,13c0.4,0.6,0.9,1.1,1.3,1.6c0.2,0.3,0.5,0.5,0.6,0.7c0.5,0.6,1,1,1.7,1.3c0.7,0.3,1.8,0.5,3.2-0.1
		c1.7-0.7,3.3-1.4,5.1-2.2c0.4-0.2,0.6-0.1,0.6-0.1c0.1,0,0.2,0.2,0.4,0.5c1.2,2.7,2.3,5.5,3.5,8.2C104.5,96.5,104.5,96.6,103.8,97z
		"/>
</g>
</svg>
