<?xml version="1.0" encoding="utf-8"?>
<!-- Generator: Adobe Illustrator 27.0.0, SVG Export Plug-In . SVG Version: 6.00 Build 0)  -->
<svg version="1.1" id="Capa_1" xmlns="http://www.w3.org/2000/svg" xmlns:xlink="http://www.w3.org/1999/xlink" x="0px" y="0px"
	 viewBox="0 0 1363.2 690.5" style="enable-background:new 0 0 1363.2 690.5;" xml:space="preserve">
<style type="text/css">
	.st0{fill:#FFE501;}
</style>
<path id="Mail_Outline" class="st0" d="M573.8,476.8h-22c-2.8,0-5,2.2-5,5v13c0,2.8,2.2,5,5,5h22c2.8,0,5-2.2,5-5v-13
	C578.8,479.1,576.6,476.8,573.8,476.8z M573.8,478.8c0.4,0,0.7,0.1,1.1,0.2l-12.3,10.4l-12.2-10.3c0.4-0.2,0.9-0.4,1.4-0.4H573.8z
	 M576.8,494.8c0,1.7-1.3,3-3,3h-22c-1.7,0-3-1.3-3-3v-13c0-0.4,0.1-0.8,0.2-1.2l12.9,10.9c0.2,0.2,0.4,0.2,0.6,0.2
	c0.2,0,0.5-0.1,0.6-0.2l13-11c0.1-0.1,0.1-0.2,0.2-0.2c0.3,0.4,0.4,1,0.4,1.5V494.8z"/>
<path id="Mail_Outline_00000120545653677804388570000014210013387152373144_" class="st0" d="M268.7,481h-22c-2.8,0-5,2.2-5,5v13
	c0,2.8,2.2,5,5,5h22c2.8,0,5-2.2,5-5v-13C273.7,483.2,271.5,481,268.7,481z M268.7,483c0.4,0,0.7,0.1,1.1,0.2l-12.3,10.4l-12.2-10.3
	c0.4-0.2,0.9-0.4,1.4-0.4H268.7z M271.7,499c0,1.7-1.3,3-3,3h-22c-1.7,0-3-1.3-3-3v-13c0-0.4,0.1-0.8,0.2-1.2l12.9,10.9
	c0.2,0.2,0.4,0.2,0.6,0.2c0.2,0,0.5-0.1,0.6-0.2l13-11c0.1-0.1,0.1-0.2,0.2-0.2c0.3,0.4,0.4,1,0.4,1.5V499z"/>
<path id="Mail_Outline_00000016766163309975242300000007507054062079544981_" class="st0" d="M598.8,547.4h-39.9
	c-5,0-9.1,4.1-9.1,9.1V580c0,5,4.1,9.1,9.1,9.1h39.9c5,0,9.1-4.1,9.1-9.1v-23.6C607.8,551.5,603.7,547.4,598.8,547.4z M598.8,551
	c0.7,0,1.3,0.1,2,0.4l-22.4,18.9l-22-18.6c0.8-0.4,1.6-0.7,2.6-0.7H598.8z M604.2,580c0,3-2.4,5.4-5.4,5.4h-39.9
	c-3,0-5.4-2.4-5.4-5.4v-23.6c0-0.7,0.2-1.5,0.4-2.1l23.3,19.7c0.3,0.3,0.8,0.4,1.2,0.4s0.8-0.1,1.2-0.4l23.6-19.9
	c0.1-0.1,0.2-0.3,0.3-0.4c0.5,0.8,0.8,1.7,0.8,2.7V580z"/>
<path id="Mail_Outline_00000057133218724634919420000006255995151167182503_" class="st0" d="M630.9,62.3h-53.5
	c-6.7,0-12.2,5.5-12.2,12.2v31.6c0,6.7,5.5,12.2,12.2,12.2h53.5c6.7,0,12.2-5.5,12.2-12.2V74.5C643.1,67.8,637.6,62.3,630.9,62.3z
	 M630.9,67.2c0.9,0,1.8,0.2,2.6,0.5l-30,25.4l-29.5-25c1-0.6,2.2-0.9,3.4-0.9H630.9z M638.2,106.1c0,4-3.3,7.3-7.3,7.3h-53.5
	c-4,0-7.3-3.3-7.3-7.3V74.5c0-1,0.2-2,0.6-2.8L602,98.1c0.5,0.4,1,0.6,1.6,0.6s1.1-0.2,1.6-0.6l31.6-26.7c0.2-0.2,0.3-0.4,0.5-0.6
	c0.6,1.1,1,2.3,1,3.7V106.1z"/>
<path id="Mail_Outline_00000123441149136286290690000017469954622349536930_" class="st0" d="M924.2,391.8h-22c-2.8,0-5,2.2-5,5v13
	c0,2.8,2.2,5,5,5h22c2.8,0,5-2.2,5-5v-13C929.2,394.1,926.9,391.8,924.2,391.8z M924.2,393.8c0.4,0,0.7,0.1,1.1,0.2l-12.3,10.4
	l-12.2-10.3c0.4-0.2,0.9-0.4,1.4-0.4H924.2z M927.2,409.8c0,1.7-1.3,3-3,3h-22c-1.7,0-3-1.3-3-3v-13c0-0.4,0.1-0.8,0.2-1.2
	l12.9,10.9c0.2,0.2,0.4,0.2,0.6,0.2c0.2,0,0.5-0.1,0.6-0.2l13-11c0.1-0.1,0.1-0.2,0.2-0.2c0.3,0.4,0.4,1,0.4,1.5V409.8z"/>
<path id="Mail_Outline_00000034791360637302295350000014073069339970009533_" class="st0" d="M904.2,144.4h-22c-2.8,0-5,2.2-5,5v13
	c0,2.8,2.2,5,5,5h22c2.8,0,5-2.2,5-5v-13C909.2,146.6,906.9,144.4,904.2,144.4z M904.2,146.4c0.4,0,0.7,0.1,1.1,0.2L892.9,157
	l-12.2-10.3c0.4-0.2,0.9-0.4,1.4-0.4H904.2z M907.2,162.4c0,1.7-1.3,3-3,3h-22c-1.7,0-3-1.3-3-3v-13c0-0.4,0.1-0.8,0.2-1.2
	l12.9,10.9c0.2,0.2,0.4,0.2,0.6,0.2c0.2,0,0.5-0.1,0.6-0.2l13-11c0.1-0.1,0.1-0.2,0.2-0.2c0.3,0.4,0.4,1,0.4,1.5V162.4z"/>
<path id="Mail_Outline_00000095325540076439637320000015165817829149008275_" class="st0" d="M960.9,82.7H921c-5,0-9.1,4.1-9.1,9.1
	v23.6c0,5,4.1,9.1,9.1,9.1h39.9c5,0,9.1-4.1,9.1-9.1V91.8C970,86.8,965.9,82.7,960.9,82.7z M960.9,86.3c0.7,0,1.3,0.1,2,0.4
	l-22.4,18.9l-22-18.6c0.8-0.4,1.6-0.7,2.6-0.7H960.9z M966.3,115.3c0,3-2.4,5.4-5.4,5.4H921c-3,0-5.4-2.4-5.4-5.4V91.8
	c0-0.7,0.2-1.5,0.4-2.1l23.3,19.7c0.3,0.3,0.8,0.4,1.2,0.4s0.8-0.1,1.2-0.4l23.6-19.9c0.1-0.1,0.2-0.3,0.3-0.4
	c0.5,0.8,0.8,1.7,0.8,2.7V115.3z"/>
<path id="Mail_Outline_00000158733779456601818420000003706638951339653766_" class="st0" d="M939.9,609.8h-22c-2.8,0-5,2.2-5,5v13
	c0,2.8,2.2,5,5,5h22c2.8,0,5-2.2,5-5v-13C944.9,612.1,942.6,609.8,939.9,609.8z M939.9,611.8c0.4,0,0.7,0.1,1.1,0.2l-12.3,10.4
	l-12.2-10.3c0.4-0.2,0.9-0.4,1.4-0.4H939.9z M942.9,627.8c0,1.7-1.3,3-3,3h-22c-1.7,0-3-1.3-3-3v-13c0-0.4,0.1-0.8,0.2-1.2
	l12.9,10.9c0.2,0.2,0.4,0.2,0.6,0.2c0.2,0,0.5-0.1,0.6-0.2l13-11c0.1-0.1,0.1-0.2,0.2-0.2c0.3,0.4,0.4,1,0.4,1.5V627.8z"/>
<path id="Mail_Outline_00000000224858267158012710000017086859380632485298_" class="st0" d="M1006.6,462.7h-39.9
	c-5,0-9.1,4.1-9.1,9.1v23.6c0,5,4.1,9.1,9.1,9.1h39.9c5,0,9.1-4.1,9.1-9.1v-23.6C1015.7,466.8,1011.6,462.7,1006.6,462.7z
	 M1006.6,466.3c0.7,0,1.3,0.1,2,0.4l-22.4,18.9l-22-18.6c0.8-0.4,1.6-0.7,2.6-0.7H1006.6z M1012.1,495.3c0,3-2.4,5.4-5.4,5.4h-39.9
	c-3,0-5.4-2.4-5.4-5.4v-23.6c0-0.7,0.2-1.5,0.4-2.1l23.3,19.7c0.3,0.3,0.8,0.4,1.2,0.4s0.8-0.1,1.2-0.4l23.6-19.9
	c0.1-0.1,0.2-0.3,0.3-0.4c0.5,0.8,0.8,1.7,0.8,2.7V495.3z"/>
<path id="Mail_Outline_00000114783147986848488800000010132182457731218877_" class="st0" d="M904.3,529.6h-53.5
	c-6.7,0-12.2,5.5-12.2,12.2v31.6c0,6.7,5.5,12.2,12.2,12.2h53.5c6.7,0,12.2-5.5,12.2-12.2v-31.6C916.5,535.1,911,529.6,904.3,529.6z
	 M904.3,534.5c0.9,0,1.8,0.2,2.6,0.5l-30,25.4l-29.5-25c1-0.6,2.2-0.9,3.4-0.9H904.3z M911.6,573.4c0,4-3.3,7.3-7.3,7.3h-53.5
	c-4,0-7.3-3.3-7.3-7.3v-31.6c0-1,0.2-2,0.6-2.8l31.3,26.5c0.5,0.4,1,0.6,1.6,0.6s1.1-0.2,1.6-0.6l31.6-26.7c0.2-0.2,0.3-0.4,0.5-0.6
	c0.6,1.1,1,2.3,1,3.7V573.4z"/>
<path id="Mail_Outline_00000166644742064693271370000012678828949452539306_" class="st0" d="M1188.6,618.6h-22c-2.8,0-5,2.2-5,5v13
	c0,2.8,2.2,5,5,5h22c2.8,0,5-2.2,5-5v-13C1193.6,620.9,1191.3,618.6,1188.6,618.6z M1188.6,620.6c0.4,0,0.7,0.1,1.1,0.2l-12.3,10.4
	l-12.2-10.3c0.4-0.2,0.9-0.4,1.4-0.4H1188.6z M1191.6,636.6c0,1.7-1.3,3-3,3h-22c-1.7,0-3-1.3-3-3v-13c0-0.4,0.1-0.8,0.2-1.2
	l12.9,10.9c0.2,0.2,0.4,0.2,0.6,0.2s0.5-0.1,0.6-0.2l13-11c0.1-0.1,0.1-0.2,0.2-0.2c0.3,0.4,0.4,1,0.4,1.5V636.6z"/>
<path id="Mail_Outline_00000108299648755640767500000014096561568982517150_" class="st0" d="M1255.3,471.5h-39.9
	c-5,0-9.1,4.1-9.1,9.1v23.6c0,5,4.1,9.1,9.1,9.1h39.9c5,0,9.1-4.1,9.1-9.1v-23.6C1264.3,475.6,1260.3,471.5,1255.3,471.5z
	 M1255.3,475.1c0.7,0,1.3,0.1,2,0.4l-22.4,18.9l-22-18.6c0.8-0.4,1.6-0.7,2.6-0.7H1255.3z M1260.7,504.1c0,3-2.4,5.4-5.4,5.4h-39.9
	c-3,0-5.4-2.4-5.4-5.4v-23.6c0-0.7,0.2-1.5,0.4-2.1l23.3,19.7c0.3,0.3,0.8,0.4,1.2,0.4c0.4,0,0.8-0.1,1.2-0.4l23.6-19.9
	c0.1-0.1,0.2-0.3,0.3-0.4c0.5,0.8,0.8,1.7,0.8,2.7V504.1z"/>
<path id="Mail_Outline_00000128454243875022853040000017096306797633224633_" class="st0" d="M502.2,476.6h-80.4
	c-10.1,0-18.3,8.2-18.3,18.3v47.5c0,10.1,8.2,18.3,18.3,18.3h80.4c10.1,0,18.3-8.2,18.3-18.3v-47.5
	C520.5,484.8,512.3,476.6,502.2,476.6z M502.2,483.9c1.4,0,2.7,0.3,3.9,0.8l-45.1,38.2l-44.4-37.6c1.5-0.8,3.3-1.3,5.2-1.3H502.2z
	 M513.2,542.4c0,6-4.9,11-11,11h-80.4c-6,0-11-4.9-11-11v-47.5c0-1.5,0.3-2.9,0.9-4.2l47,39.8c0.7,0.6,1.5,0.9,2.4,0.9
	c0.8,0,1.7-0.3,2.4-0.9l47.5-40.2c0.3-0.2,0.5-0.6,0.7-0.9c1,1.6,1.6,3.5,1.6,5.5V542.4z"/>
<path id="Mail_Outline_00000018220485361065342920000017746646532128025021_" class="st0" d="M505,322.4h-22c-2.8,0-5,2.2-5,5v13
	c0,2.8,2.2,5,5,5h22c2.8,0,5-2.2,5-5v-13C510,324.7,507.8,322.4,505,322.4z M505,324.4c0.4,0,0.7,0.1,1.1,0.2l-12.3,10.4l-12.2-10.3
	c0.4-0.2,0.9-0.4,1.4-0.4H505z M508,340.4c0,1.7-1.3,3-3,3h-22c-1.7,0-3-1.3-3-3v-13c0-0.4,0.1-0.8,0.2-1.2l12.9,10.9
	c0.2,0.2,0.4,0.2,0.6,0.2s0.5-0.1,0.6-0.2l13-11c0.1-0.1,0.1-0.2,0.2-0.2c0.3,0.4,0.4,1,0.4,1.5V340.4z"/>
<path id="Mail_Outline_00000176004687444185747550000004531217868884258732_" class="st0" d="M737.9,270.5H698c-5,0-9.1,4.1-9.1,9.1
	v23.6c0,5,4.1,9.1,9.1,9.1h39.9c5,0,9.1-4.1,9.1-9.1v-23.6C746.9,274.6,742.9,270.5,737.9,270.5z M737.9,274.2c0.7,0,1.3,0.1,2,0.4
	l-22.4,18.9l-22-18.6c0.8-0.4,1.6-0.7,2.6-0.7H737.9z M743.3,303.2c0,3-2.4,5.4-5.4,5.4H698c-3,0-5.4-2.4-5.4-5.4v-23.6
	c0-0.7,0.2-1.5,0.4-2.1l23.3,19.7c0.3,0.3,0.8,0.4,1.2,0.4s0.8-0.1,1.2-0.4l23.6-19.9c0.1-0.1,0.2-0.3,0.3-0.4
	c0.5,0.8,0.8,1.7,0.8,2.7V303.2z"/>
<path id="Mail_Outline_00000060029294127843431210000000017398674103122572_" class="st0" d="M508.4,242.2h-53.5
	c-6.7,0-12.2,5.5-12.2,12.2V286c0,6.7,5.5,12.2,12.2,12.2h53.5c6.7,0,12.2-5.5,12.2-12.2v-31.6C520.5,247.7,515.1,242.2,508.4,242.2
	z M508.4,247.1c0.9,0,1.8,0.2,2.6,0.5L481,273l-29.5-25c1-0.6,2.2-0.9,3.4-0.9H508.4z M515.7,286c0,4-3.3,7.3-7.3,7.3h-53.5
	c-4,0-7.3-3.3-7.3-7.3v-31.6c0-1,0.2-2,0.6-2.8l31.3,26.5c0.5,0.4,1,0.6,1.6,0.6s1.1-0.2,1.6-0.6l31.6-26.7c0.2-0.2,0.3-0.4,0.5-0.6
	c0.6,1.1,1,2.3,1,3.7V286z"/>
<path id="Mail_Outline_00000152222534788217111040000014291200488369990570_" class="st0" d="M310,204.3h-22c-2.8,0-5,2.2-5,5v13
	c0,2.8,2.2,5,5,5h22c2.8,0,5-2.2,5-5v-13C315,206.5,312.8,204.3,310,204.3z M310,206.3c0.4,0,0.7,0.1,1.1,0.2l-12.3,10.4l-12.2-10.3
	c0.4-0.2,0.9-0.4,1.4-0.4H310z M313,222.3c0,1.7-1.3,3-3,3h-22c-1.7,0-3-1.3-3-3v-13c0-0.4,0.1-0.8,0.2-1.2l12.9,10.9
	c0.2,0.2,0.4,0.2,0.6,0.2c0.2,0,0.5-0.1,0.6-0.2l13-11c0.1-0.1,0.1-0.2,0.2-0.2c0.3,0.4,0.4,1,0.4,1.5V222.3z"/>
<path id="Mail_Outline_00000170995097261264715590000013382227855565403783_" class="st0" d="M246.4,102.2h-63.2
	c-7.9,0-14.4,6.5-14.4,14.4v37.4c0,7.9,6.5,14.4,14.4,14.4h63.2c7.9,0,14.4-6.5,14.4-14.4v-37.4
	C260.7,108.7,254.3,102.2,246.4,102.2z M246.4,107.9c1.1,0,2.1,0.2,3.1,0.6l-35.5,30L179.1,109c1.2-0.7,2.6-1.1,4.1-1.1H246.4z
	 M255,153.9c0,4.8-3.9,8.6-8.6,8.6h-63.2c-4.8,0-8.6-3.9-8.6-8.6v-37.4c0-1.2,0.2-2.3,0.7-3.3l37,31.3c0.5,0.5,1.2,0.7,1.9,0.7
	s1.3-0.2,1.9-0.7l37.4-31.6c0.2-0.2,0.4-0.4,0.5-0.7c0.8,1.3,1.2,2.8,1.2,4.4V153.9z"/>
<path id="Mail_Outline_00000000186500787449917900000000502550983253170605_" class="st0" d="M1247.8,284.1h-22c-2.8,0-5,2.2-5,5v13
	c0,2.8,2.2,5,5,5h22c2.8,0,5-2.2,5-5v-13C1252.8,286.3,1250.5,284.1,1247.8,284.1z M1247.8,286.1c0.4,0,0.7,0.1,1.1,0.2l-12.3,10.4
	l-12.2-10.3c0.4-0.2,0.9-0.4,1.4-0.4H1247.8z M1250.8,302.1c0,1.7-1.3,3-3,3h-22c-1.7,0-3-1.3-3-3v-13c0-0.4,0.1-0.8,0.2-1.2
	l12.9,10.9c0.2,0.2,0.4,0.2,0.6,0.2s0.5-0.1,0.6-0.2l13-11c0.1-0.1,0.1-0.2,0.2-0.2c0.3,0.4,0.4,1,0.4,1.5V302.1z"/>
<path id="Mail_Outline_00000016037957080201606080000015061988997662698159_" class="st0" d="M1314.5,136.9h-39.9
	c-5,0-9.1,4.1-9.1,9.1v23.6c0,5,4.1,9.1,9.1,9.1h39.9c5,0,9.1-4.1,9.1-9.1V146C1323.5,141,1319.5,136.9,1314.5,136.9z M1314.5,140.6
	c0.7,0,1.3,0.1,2,0.4l-22.4,18.9l-22-18.6c0.8-0.4,1.6-0.7,2.6-0.7H1314.5z M1319.9,169.6c0,3-2.4,5.4-5.4,5.4h-39.9
	c-3,0-5.4-2.4-5.4-5.4V146c0-0.7,0.2-1.5,0.4-2.1l23.3,19.7c0.3,0.3,0.8,0.4,1.2,0.4s0.8-0.1,1.2-0.4l23.6-19.9
	c0.1-0.1,0.2-0.3,0.3-0.4c0.5,0.8,0.8,1.7,0.8,2.7V169.6z"/>
<path id="Mail_Outline_00000080177974263902333830000010284597154699202484_" class="st0" d="M1298.8,594.5h-53.5
	c-6.7,0-12.2,5.5-12.2,12.2v31.6c0,6.7,5.5,12.2,12.2,12.2h53.5c6.7,0,12.2-5.5,12.2-12.2v-31.6C1311,600,1305.5,594.5,1298.8,594.5
	z M1298.8,599.4c0.9,0,1.8,0.2,2.6,0.5l-30,25.4l-29.5-25c1-0.6,2.2-0.9,3.4-0.9H1298.8z M1306.1,638.3c0,4-3.3,7.3-7.3,7.3h-53.5
	c-4,0-7.3-3.3-7.3-7.3v-31.6c0-1,0.2-2,0.6-2.8l31.3,26.5c0.5,0.4,1,0.6,1.6,0.6c0.6,0,1.1-0.2,1.6-0.6l31.6-26.7
	c0.2-0.2,0.3-0.4,0.5-0.6c0.6,1.1,1,2.3,1,3.7V638.3z"/>
<path id="Mail_Outline_00000068657722457025452130000012895249979420337794_" class="st0" d="M1018.8,215.8h-97.6
	c-12.2,0-22.2,10-22.2,22.2v57.7c0,12.2,10,22.2,22.2,22.2h97.6c12.2,0,22.2-10,22.2-22.2V238
	C1040.9,225.8,1030.9,215.8,1018.8,215.8z M1018.8,224.7c1.7,0,3.3,0.3,4.8,0.9l-54.7,46.3l-53.9-45.6c1.9-1,4-1.6,6.2-1.6H1018.8z
	 M1032.1,295.6c0,7.3-6,13.3-13.3,13.3h-97.6c-7.3,0-13.3-6-13.3-13.3V238c0-1.8,0.4-3.6,1-5.1l57,48.3c0.8,0.7,1.8,1.1,2.9,1.1
	c1,0,2-0.4,2.9-1.1l57.7-48.8c0.4-0.3,0.6-0.7,0.8-1c1.2,2,1.9,4.3,1.9,6.7V295.6z"/>
<path id="Mail_Outline_00000014612172823487480020000012076113003726795429_" class="st0" d="M247.8,566.5h-53.5
	c-6.7,0-12.2,5.5-12.2,12.2v31.6c0,6.7,5.5,12.2,12.2,12.2h53.5c6.7,0,12.2-5.5,12.2-12.2v-31.6C260,572,254.5,566.5,247.8,566.5z
	 M247.8,571.4c0.9,0,1.8,0.2,2.6,0.5l-30,25.4l-29.5-25c1-0.6,2.2-0.9,3.4-0.9H247.8z M255.1,610.3c0,4-3.3,7.3-7.3,7.3h-53.5
	c-4,0-7.3-3.3-7.3-7.3v-31.6c0-1,0.2-2,0.6-2.8l31.3,26.5c0.5,0.4,1,0.6,1.6,0.6c0.6,0,1.1-0.2,1.6-0.6l31.6-26.7
	c0.2-0.2,0.3-0.4,0.5-0.6c0.6,1.1,1,2.3,1,3.7V610.3z"/>
<path id="Mail_Outline_00000094608195995697979280000011747914444837991307_" class="st0" d="M167.6,230.3H64.8
	c-12.8,0-23.4,10.5-23.4,23.4v60.7c0,12.8,10.5,23.4,23.4,23.4h102.8c12.8,0,23.4-10.5,23.4-23.4v-60.7
	C190.9,240.8,180.4,230.3,167.6,230.3z M167.6,239.7c1.8,0,3.5,0.4,5,1L115,289.4l-56.8-48c2-1.1,4.2-1.7,6.6-1.7H167.6z
	 M181.6,314.4c0,7.7-6.3,14-14,14H64.8c-7.7,0-14-6.3-14-14v-60.7c0-1.9,0.4-3.8,1.1-5.4l60.1,50.8c0.9,0.7,1.9,1.1,3,1.1
	c1.1,0,2.1-0.4,3-1.1l60.7-51.4c0.4-0.3,0.6-0.7,0.9-1.1c1.2,2.1,2,4.5,2,7.1V314.4z"/>
<g id="Phone_Outlined">
	<path class="st0" d="M163.3,392.8c-5.8-13.2-16.1-23.6-29.2-29c-1.1-0.5-2.3,0.1-2.8,1.2c-0.4,1.1,0.1,2.4,1.2,2.9
		c12,5,21.6,14.5,26.9,26.7c0.4,0.8,1.1,1.3,1.9,1.3c0.3,0,0.6-0.1,0.9-0.2C163.3,395.2,163.8,393.9,163.3,392.8z"/>
	<path class="st0" d="M131.4,379.5c7.3,3,13.1,8.8,16.3,16.2c0.3,0.8,1.1,1.2,1.9,1.2c0.3,0,0.6-0.1,0.8-0.2c1-0.5,1.5-1.7,1-2.8
		c-3.7-8.4-10.2-14.9-18.5-18.4c-1.1-0.4-2.2,0.1-2.7,1.2C129.9,377.8,130.4,379.1,131.4,379.5z"/>
	<path class="st0" d="M152.2,405.1c-1.2-1.2-2.5-1.7-3.8-1.7c-1.3,0-2.6,0.6-3.8,1.7c-1.8,1.8-3.5,3.5-5.3,5.3
		c-0.3,0.3-0.6,0.5-0.8,0.5c-0.2,0-0.4-0.1-0.6-0.2c-1.1-0.6-2.4-1.1-3.5-1.8c-5.1-3.2-9.4-7.4-13.2-12c-1.9-2.3-3.6-4.8-4.7-7.6
		c-0.2-0.6-0.2-0.9,0.3-1.4c1.8-1.7,3.5-3.5,5.2-5.2c2.4-2.4,2.4-5.3,0-7.7c-1.4-1.4-2.8-2.8-4.1-4.2c-1.4-1.4-2.8-2.9-4.3-4.3
		c-1.2-1.1-2.5-1.7-3.8-1.7c-1.3,0-2.6,0.6-3.8,1.7c-1.8,1.8-3.5,3.5-5.3,5.3c-1.7,1.6-2.5,3.5-2.7,5.8c-0.3,3.7,0.6,7.2,1.9,10.6
		c2.6,7,6.6,13.3,11.4,19c6.5,7.8,14.3,13.9,23.4,18.3c4.1,2,8.3,3.5,13,3.8c0.3,0,0.6,0,0.8,0c2.8,0,5.3-0.9,7.3-3.1
		c1.5-1.7,3.2-3.2,4.8-4.9c2.4-2.4,2.4-5.3,0-7.7C157.8,410.7,155,407.9,152.2,405.1z M157.6,418.2c-0.5,0.5-1.1,1.1-1.6,1.6
		c-1.1,1.1-2.3,2.2-3.4,3.4c-1.1,1.2-2.3,1.7-4.1,1.7c-0.2,0-0.4,0-0.6,0c-3.4-0.2-6.9-1.2-11.3-3.3c-8.4-4.1-15.8-9.9-22-17.2
		c-4.9-5.8-8.4-11.6-10.7-17.8c-1.3-3.5-1.8-6.2-1.6-8.7c0.1-1.3,0.5-2.2,1.4-3c1.1-1.1,2.2-2.2,3.3-3.2c0.7-0.7,1.4-1.4,2.1-2.1
		c0.4-0.4,0.7-0.5,0.8-0.5c0.1,0,0.4,0.1,0.8,0.5c0.9,0.9,1.9,1.9,2.8,2.8l1.4,1.4c0.7,0.7,1.4,1.4,2.1,2.1c0.7,0.7,1.4,1.4,2,2
		c0.8,0.8,0.7,0.9,0,1.7l-0.7,0.7c-1.5,1.5-2.9,3-4.5,4.5c-1.7,1.7-2.1,3.9-1.2,6.1c1.2,2.9,2.9,5.6,5.4,8.6
		c4.5,5.5,9.1,9.7,14.3,13c0.8,0.5,1.7,0.9,2.5,1.3c0.4,0.2,0.8,0.4,1.2,0.6c0.9,0.5,1.8,0.7,2.7,0.7c1,0,2.5-0.3,3.9-1.8
		c1.7-1.7,3.4-3.5,5.2-5.2c0.4-0.4,0.7-0.5,0.7-0.5c0.1,0,0.4,0.1,0.8,0.5c2.8,2.8,5.7,5.6,8.5,8.5
		C158.3,417.2,158.3,417.4,157.6,418.2z"/>
</g>
<g id="Phone_Outlined_00000160912269376281335770000003836310224359033728_">
	<path class="st0" d="M107.3,630.6c-3.5-8-9.8-14.3-17.6-17.6c-0.7-0.3-1.4,0.1-1.7,0.7c-0.3,0.7,0.1,1.5,0.7,1.7
		c7.3,3,13.1,8.8,16.3,16.2c0.2,0.5,0.7,0.8,1.2,0.8c0.2,0,0.4,0,0.5-0.1C107.3,632.1,107.6,631.3,107.3,630.6z"/>
	<path class="st0" d="M88,622.6c4.4,1.8,7.9,5.3,9.9,9.8c0.2,0.5,0.7,0.8,1.1,0.8c0.2,0,0.3,0,0.5-0.1c0.6-0.3,0.9-1,0.6-1.7
		c-2.2-5.1-6.2-9-11.2-11.1c-0.6-0.3-1.4,0-1.6,0.7C87.1,621.6,87.4,622.3,88,622.6z"/>
	<path class="st0" d="M100.5,638c-0.7-0.7-1.5-1-2.3-1c-0.8,0-1.6,0.3-2.3,1c-1.1,1.1-2.1,2.1-3.2,3.2c-0.2,0.2-0.3,0.3-0.5,0.3
		c-0.1,0-0.2,0-0.4-0.1c-0.7-0.4-1.4-0.7-2.1-1.1c-3.1-2-5.7-4.5-8-7.3c-1.1-1.4-2.2-2.9-2.9-4.6c-0.1-0.3-0.1-0.6,0.2-0.8
		c1.1-1,2.1-2.1,3.2-3.2c1.5-1.5,1.5-3.2,0-4.7c-0.8-0.8-1.7-1.7-2.5-2.5c-0.9-0.9-1.7-1.7-2.6-2.6c-0.7-0.7-1.5-1-2.3-1
		c-0.8,0-1.6,0.3-2.3,1c-1.1,1.1-2.1,2.1-3.2,3.2c-1,1-1.5,2.1-1.6,3.5c-0.2,2.2,0.4,4.4,1.2,6.4c1.6,4.3,4,8,6.9,11.5
		c3.9,4.7,8.7,8.4,14.2,11.1c2.5,1.2,5.1,2.1,7.8,2.3c0.2,0,0.3,0,0.5,0c1.7,0,3.2-0.5,4.4-1.9c0.9-1,2-2,2.9-2.9
		c1.4-1.5,1.4-3.2,0-4.7C104,641.5,102.3,639.7,100.5,638z M103.8,646c-0.3,0.3-0.6,0.6-1,1c-0.7,0.7-1.4,1.3-2,2.1
		c-0.6,0.7-1.4,1-2.5,1c-0.1,0-0.2,0-0.4,0c-2.1-0.1-4.2-0.7-6.9-2c-5.1-2.5-9.6-6-13.3-10.4c-3-3.5-5.1-7.1-6.5-10.8
		c-0.8-2.1-1.1-3.8-1-5.3c0.1-0.8,0.3-1.3,0.8-1.8c0.7-0.6,1.3-1.3,2-2c0.4-0.4,0.8-0.8,1.3-1.3c0.2-0.2,0.4-0.3,0.5-0.3
		c0.1,0,0.2,0.1,0.5,0.3c0.6,0.6,1.1,1.1,1.7,1.7l0.9,0.9c0.4,0.4,0.9,0.9,1.3,1.3c0.4,0.4,0.8,0.8,1.2,1.2c0.5,0.5,0.5,0.6,0,1
		L80,623c-0.9,0.9-1.8,1.8-2.7,2.7c-1,1-1.3,2.4-0.7,3.7c0.7,1.7,1.8,3.4,3.3,5.2c2.7,3.3,5.5,5.9,8.6,7.8c0.5,0.3,1,0.6,1.5,0.8
		c0.2,0.1,0.5,0.2,0.7,0.4c0.5,0.3,1.1,0.5,1.6,0.5c0.6,0,1.5-0.2,2.4-1.1c1-1.1,2.1-2.1,3.2-3.2c0.2-0.2,0.4-0.3,0.4-0.3
		c0.1,0,0.2,0.1,0.5,0.3c1.7,1.7,3.4,3.4,5.1,5.1C104.2,645.4,104.3,645.5,103.8,646z"/>
</g>
<g id="Phone_Outlined_00000120529180744943422340000015747555541025467786_">
	<path class="st0" d="M1222.6,71.7c-5.5-12.6-15.3-22.4-27.7-27.5c-1-0.4-2.2,0.1-2.6,1.1c-0.4,1.1,0.1,2.3,1.1,2.7
		c11.4,4.8,20.5,13.8,25.5,25.4c0.3,0.8,1.1,1.2,1.8,1.2c0.3,0,0.6-0.1,0.8-0.2C1222.6,74,1223,72.7,1222.6,71.7z"/>
	<path class="st0" d="M1192.3,59.1c6.9,2.9,12.4,8.3,15.5,15.4c0.3,0.7,1,1.2,1.8,1.2c0.3,0,0.5-0.1,0.8-0.2c1-0.5,1.4-1.6,1-2.6
		c-3.5-8-9.7-14.2-17.6-17.4c-1-0.4-2.1,0.1-2.5,1.1C1190.9,57.5,1191.3,58.7,1192.3,59.1z"/>
	<path class="st0" d="M1212,83.3c-1.1-1.1-2.4-1.6-3.6-1.6c-1.2,0-2.5,0.5-3.6,1.6c-1.7,1.7-3.4,3.3-5,5c-0.3,0.3-0.5,0.4-0.8,0.4
		c-0.2,0-0.4-0.1-0.6-0.2c-1.1-0.6-2.2-1.1-3.3-1.7c-4.9-3.1-8.9-7-12.5-11.4c-1.8-2.2-3.4-4.6-4.5-7.2c-0.2-0.5-0.2-0.9,0.3-1.3
		c1.7-1.6,3.3-3.3,5-4.9c2.3-2.3,2.3-5,0-7.3c-1.3-1.3-2.6-2.6-3.9-3.9c-1.4-1.4-2.7-2.7-4.1-4.1c-1.1-1.1-2.3-1.6-3.6-1.6
		c-1.2,0-2.5,0.5-3.6,1.6c-1.7,1.7-3.3,3.4-5,5c-1.6,1.5-2.4,3.4-2.6,5.5c-0.3,3.5,0.6,6.8,1.8,10.1c2.5,6.7,6.3,12.6,10.8,18.1
		c6.2,7.4,13.6,13.2,22.2,17.4c3.9,1.9,7.9,3.3,12.3,3.6c0.3,0,0.5,0,0.8,0c2.7,0,5-0.8,7-3c1.4-1.6,3.1-3.1,4.6-4.6
		c2.3-2.3,2.3-5,0-7.3C1217.4,88.7,1214.7,86,1212,83.3z M1217.1,95.8c-0.5,0.5-1,1-1.5,1.5c-1.1,1-2.2,2.1-3.2,3.3
		c-1,1.1-2.2,1.6-3.9,1.6c-0.2,0-0.4,0-0.6,0c-3.3-0.2-6.6-1.2-10.7-3.2c-8-3.9-15-9.4-20.9-16.3c-4.7-5.5-8-11.1-10.1-16.9
		c-1.3-3.3-1.7-5.9-1.6-8.3c0.1-1.2,0.5-2.1,1.3-2.9c1.1-1,2.1-2,3.1-3.1c0.7-0.7,1.3-1.3,2-2c0.4-0.4,0.6-0.5,0.7-0.5
		c0.1,0,0.4,0.1,0.7,0.4c0.9,0.9,1.8,1.8,2.7,2.7l1.3,1.3c0.7,0.7,1.3,1.3,2,2c0.6,0.6,1.3,1.3,1.9,1.9c0.8,0.8,0.7,0.9,0,1.6
		l-0.7,0.7c-1.4,1.4-2.8,2.8-4.3,4.2c-1.6,1.6-2,3.7-1.1,5.8c1.2,2.7,2.8,5.3,5.1,8.2c4.3,5.2,8.7,9.2,13.6,12.3
		c0.8,0.5,1.6,0.9,2.3,1.2c0.4,0.2,0.8,0.4,1.1,0.6c0.8,0.5,1.7,0.7,2.6,0.7c1,0,2.4-0.3,3.7-1.7c1.6-1.7,3.3-3.3,5-5
		c0.4-0.4,0.6-0.5,0.7-0.5c0.1,0,0.4,0.1,0.7,0.5c2.7,2.7,5.4,5.3,8,8C1217.8,94.9,1217.9,95.1,1217.1,95.8z"/>
</g>
<g id="Phone_Outlined_00000073682876637575836230000009328781941218668731_">
	<path class="st0" d="M94.2,62.1c-2.4-5.6-6.8-9.9-12.3-12.2c-0.5-0.2-1,0-1.2,0.5c-0.2,0.5,0,1,0.5,1.2c5,2.1,9.1,6.1,11.3,11.2
		c0.1,0.3,0.5,0.5,0.8,0.5c0.1,0,0.2,0,0.4-0.1C94.2,63.1,94.4,62.5,94.2,62.1z"/>
	<path class="st0" d="M80.9,56.5c3.1,1.3,5.5,3.7,6.9,6.8c0.1,0.3,0.5,0.5,0.8,0.5c0.1,0,0.2,0,0.4-0.1c0.4-0.2,0.6-0.7,0.4-1.2
		c-1.5-3.5-4.3-6.3-7.8-7.7c-0.4-0.2-0.9,0-1.1,0.5C80.2,55.8,80.4,56.3,80.9,56.5z"/>
	<path class="st0" d="M89.6,67.2c-0.5-0.5-1-0.7-1.6-0.7c-0.6,0-1.1,0.2-1.6,0.7c-0.7,0.7-1.5,1.5-2.2,2.2c-0.1,0.1-0.2,0.2-0.4,0.2
		c-0.1,0-0.2,0-0.3-0.1c-0.5-0.3-1-0.5-1.5-0.8c-2.2-1.4-4-3.1-5.6-5.1c-0.8-1-1.5-2-2-3.2c-0.1-0.2-0.1-0.4,0.1-0.6
		c0.7-0.7,1.5-1.5,2.2-2.2c1-1,1-2.2,0-3.3c-0.6-0.6-1.2-1.2-1.7-1.7c-0.6-0.6-1.2-1.2-1.8-1.8c-0.5-0.5-1-0.7-1.6-0.7
		c-0.6,0-1.1,0.2-1.6,0.7c-0.7,0.7-1.5,1.5-2.2,2.2c-0.7,0.7-1.1,1.5-1.1,2.4c-0.1,1.6,0.3,3,0.8,4.5c1.1,3,2.8,5.6,4.8,8
		c2.7,3.3,6,5.8,9.8,7.7c1.7,0.8,3.5,1.5,5.4,1.6c0.1,0,0.2,0,0.3,0c1.2,0,2.2-0.4,3.1-1.3c0.6-0.7,1.4-1.4,2-2c1-1,1-2.2,0-3.2
		C91.9,69.6,90.8,68.4,89.6,67.2z M91.8,72.7c-0.2,0.2-0.5,0.4-0.7,0.7c-0.5,0.5-1,0.9-1.4,1.4c-0.4,0.5-1,0.7-1.7,0.7
		c-0.1,0-0.2,0-0.3,0c-1.4-0.1-2.9-0.5-4.8-1.4c-3.5-1.7-6.7-4.2-9.2-7.2c-2.1-2.5-3.5-4.9-4.5-7.5c-0.6-1.5-0.8-2.6-0.7-3.7
		c0-0.5,0.2-0.9,0.6-1.3c0.5-0.4,0.9-0.9,1.4-1.4c0.3-0.3,0.6-0.6,0.9-0.9c0.2-0.2,0.3-0.2,0.3-0.2c0,0,0.2,0,0.3,0.2
		c0.4,0.4,0.8,0.8,1.2,1.2l0.6,0.6c0.3,0.3,0.6,0.6,0.9,0.9c0.3,0.3,0.6,0.6,0.9,0.9c0.3,0.3,0.3,0.4,0,0.7l-0.3,0.3
		c-0.6,0.6-1.2,1.2-1.9,1.9c-0.7,0.7-0.9,1.6-0.5,2.6c0.5,1.2,1.2,2.4,2.3,3.6c1.9,2.3,3.8,4.1,6,5.4c0.4,0.2,0.7,0.4,1,0.6
		c0.2,0.1,0.3,0.2,0.5,0.2c0.4,0.2,0.8,0.3,1.1,0.3c0.4,0,1.1-0.1,1.7-0.7c0.7-0.7,1.4-1.5,2.2-2.2c0.2-0.2,0.3-0.2,0.3-0.2
		c0,0,0.2,0,0.3,0.2c1.2,1.2,2.4,2.4,3.6,3.6C92.1,72.3,92.2,72.4,91.8,72.7z"/>
</g>
</svg>
