<?xml version="1.0" encoding="UTF-8"?>
<svg id="Capa_1" data-name="Capa 1" xmlns="http://www.w3.org/2000/svg" viewBox="0 0 150 150">
  <defs>
    <style>
      .cls-1 {
        fill: #ffe501;
      }

      .cls-2 {
        fill: #0e0e0e;
      }
    </style>
  </defs>
  <rect class="cls-1" x="0" width="150" height="150" rx="35" ry="35"/>
  <g>
    <path class="cls-2" d="M135.24,37.99c0,5.77,.01,11.55,0,17.32,0,2.71-.43,3.16-3.1,3.17-5.93,.02-11.86-.04-17.79,.03-1.78,.02-3.08-.6-4.31-1.87-4.19-4.3-8.46-8.53-12.75-12.73-.59-.58-1.51-.84-2.28-1.24-.23,.86-.65,1.71-.66,2.57-.05,7.8-.03,15.61-.04,23.41,0,3.11-.36,3.45-3.54,3.47-2.42,0-4.84-.06-7.26,.01-2.14,.07-2.89-.92-2.88-2.98,.05-8.43,.05-16.86,0-25.28-.01-2.16,.77-3.18,3.03-3.07,2.18,.11,4.37,.07,6.55-.02,.79-.03,1.56-.4,2.35-.61-.37-.7-.6-1.53-1.12-2.08-2.87-2.98-5.74-5.96-8.75-8.79-1.55-1.46-2.12-3.03-2.07-5.15,.15-7.29-.72-6.56,6.71-6.69,2.13-.04,3.68,.59,5.13,2.13,2.89,3.06,5.91,6,8.93,8.94,.45,.44,1.16,.62,1.75,.92,.27-.66,.76-1.31,.79-1.98,.09-2.49,.05-4.99,.03-7.49-.02-1.65,.75-2.46,2.4-2.46,8.82,0,17.64,0,26.45-.01,2.01,0,2.44,1.22,2.44,2.93-.03,5.85-.01,11.71,0,17.56Zm-21.82-6.8h0c-2.1,.01-4.2-.05-6.3,.03-1.37,.05-1.99,.92-.97,1.98,3.61,3.75,7.28,7.47,11.1,11,.64,.59,2.26,.52,3.25,.2,.56-.18,1.02-1.47,1.06-2.29,.13-2.8,.04-5.6,.05-8.4,0-1.73-.81-2.57-2.58-2.53-1.87,.04-3.73,0-5.6,0Z"/>
    <path class="cls-2" d="M14.78,98.54c0-5.85,.05-11.7-.03-17.55-.03-2.17,.77-3.1,3.01-3.09,11.7,.05,23.39,.04,35.09,0,2.11,0,2.98,.87,2.91,2.95-.07,2.26-.05,4.52,0,6.78,.06,2.81,1.16,3.87,4.07,3.93,2.26,.05,4.53,.11,6.78,0,1.9-.09,2.77,.71,2.77,2.56,0,12.01-.01,24.02-.02,36.03,0,1.65-.83,2.38-2.48,2.38-11.93-.01-23.86,0-35.79,0-1.82,0-2.73-.81-2.68-2.71,.06-2.34,.05-4.68,0-7.02-.06-2.73-1.15-3.83-3.85-3.9-2.34-.06-4.68-.06-7.02-.01-1.97,.04-2.8-.81-2.78-2.81,.07-5.85,.02-11.7,.02-17.55Zm13.71,5.95c0,3.51-.05,7.01,.02,10.52,.05,2.6,1.14,3.8,3.7,3.82,7.01,.07,14.02,.03,21.04,.02,1.57,0,2.5-.68,2.49-2.38-.02-7.01,.03-14.03-.04-21.04-.03-2.74-1.15-3.79-3.93-3.81-6.86-.04-13.71,.03-20.57-.03-2.04-.02-2.76,.89-2.72,2.84,.07,3.35,.02,6.7,.03,10.05Z"/>
    <path class="cls-2" d="M80.64,98.31c0-5.77,.05-11.55-.03-17.32-.03-2.2,.79-3.14,3.03-3.06,2.57,.1,5.15,.09,7.72-.02,2.27-.1,3.01,.94,3,3.09-.05,10.92-.02,21.84-.02,32.77,0,4.29,.73,5.06,5.02,5.07,10.69,.02,21.38,0,32.07,0,3.61,0,3.8,.22,3.8,3.9,0,2.34-.06,4.68,.02,7.02,.06,1.87-.77,2.77-2.62,2.77-11.94,0-23.87-.02-35.81-.02-1.76,0-2.54-.83-2.51-2.59,.05-2.42,.06-4.84-.02-7.25-.09-2.56-1.21-3.68-3.78-3.77-2.26-.08-4.53-.11-6.79,0-2.21,.1-3.11-.81-3.09-3.02,.06-5.85,.02-11.7,.02-17.55h-.01Z"/>
    <path class="cls-2" d="M35.14,52.12c0-5.46,0-10.92,0-16.38,0-3.58-.97-4.53-4.62-4.54-4.21,0-8.42,.02-12.63-.01-2.71-.03-3.11-.45-3.12-3.16-.02-2.65,.04-5.3,0-7.96-.03-1.76,.73-2.57,2.52-2.56,5.07,.03,10.14,.02,15.21-.02,1.83-.01,2.75,.72,2.69,2.64-.07,2.26-.03,4.52,0,6.78,.04,3.02,1.1,4.15,4.04,4.21,1.95,.05,3.9,.05,5.85-.03,2.64-.1,3.65-1.14,3.7-3.76,.04-2.42,.05-4.84,0-7.25-.03-1.76,.79-2.59,2.53-2.59,5.15,0,10.3,.02,15.44,0,1.76,0,2.58,.8,2.57,2.55-.02,2.73-.08,5.46,.02,8.19,.09,2.3-1.01,3.01-3.13,2.98-4.13-.06-8.27-.01-12.4,0-4.15,0-5.01,.88-5.02,5.15,0,10.76,0,21.53-.01,32.29,0,3.17-.28,3.44-3.47,3.47-2.42,.02-4.84-.03-7.25,.01-2.03,.03-2.97-.79-2.94-2.93,.08-5.69,.03-11.39,.03-17.08Z"/>
  </g>
</svg>