<?xml version="1.0" encoding="utf-8"?>
<!-- Generator: Adobe Illustrator 27.0.0, SVG Export Plug-In . SVG Version: 6.00 Build 0)  -->
<svg version="1.1" id="Capa_1" xmlns="http://www.w3.org/2000/svg" xmlns:xlink="http://www.w3.org/1999/xlink" x="0px" y="0px"
	 viewBox="0 0 512 512" style="enable-background:new 0 0 512 512;" xml:space="preserve">
<style type="text/css">
	.st0{fill:#FFE501;}
	.st1{opacity:0.1;fill:#FFFFFF;enable-background:new    ;}
	.st2{fill:#FFFFFF;}
</style>
<g id="Layer_2">
	<g id="Circle">
		<g id="_03.Instagram">
			<path id="Background" class="st0" d="M256,0L256,0c141.4,0,256,114.6,256,256l0,0c0,141.4-114.6,256-256,256l0,0
				C114.6,512,0,397.4,0,256l0,0C0,114.6,114.6,0,256,0z"/>
			<g>
				<path id="Shade" class="st1" d="M448.7,87.6c-37.3,68.5-90.1,139.2-156.1,205.1s-136.6,118.6-205,156
					c-4.3-3.7-8.5-7.6-12.5-11.7C-26.6,338.8-29.3,176.7,68.9,75s260.3-104.4,362-6.1c2.1,2,4.1,4,6.1,6.1
					C441.1,79,444.9,83.2,448.7,87.6L448.7,87.6z"/>
				<g id="Icon">
					<path class="st2" d="M316.6,121.3H195.4c-40.9,0-74.1,33.2-74.1,74.1v121.3c0,40.9,33.2,74.1,74.1,74.1h121.3
						c40.9,0,74.1-33.2,74.1-74.1V195.4C390.7,154.4,357.6,121.3,316.6,121.3z M367.2,306c0,33.8-27.4,61.2-61.2,61.2h0H206
						c-33.8,0-61.2-27.4-61.2-61.2c0,0,0,0,0,0V206c0-33.8,27.4-61.2,61.2-61.2l0,0h100c33.8,0,61.2,27.4,61.2,61.2l0,0V306z"/>
					<path class="st2" d="M305.1,207.4l-0.6-0.6l-0.5-0.5c-12.7-12.7-30-19.8-48-19.8c-38.2,0.3-68.9,31.4-68.6,69.6c0,0,0,0,0,0
						c0,18.4,7.2,36.1,20.2,49.2c12.8,13,30.3,20.3,48.6,20.2c38.6-0.8,69.2-32.7,68.3-71.3C324.1,236.7,317.2,220,305.1,207.4z
						 M256,301.7c-25.2,0.4-46-19.8-46.3-45c-0.4-25.2,19.8-46,45-46.3c25.2-0.4,46,19.8,46.3,45c0,0.2,0,0.4,0,0.6
						C301.2,281,281.1,301.5,256,301.7C256,301.7,256,301.7,256,301.7z"/>
					<path class="st2" d="M345,183.2c0.1,9.1-7.2,16.5-16.3,16.6c0,0,0,0,0,0c-4.3,0-8.5-1.7-11.5-4.8c-6.4-6.5-6.4-17,0.2-23.5
						c3-3,7.1-4.7,11.4-4.8c3.8,0,7.5,1.3,10.4,3.8l0.3,0.3c0.5,0.4,1,0.9,1.5,1.5l0.4,0.4C343.7,175.6,345,179.3,345,183.2
						L345,183.2z"/>
				</g>
			</g>
		</g>
	</g>
</g>
</svg>
